<?xml version="1.0" encoding="UTF-8" standalone="no"?><!DOCTYPE svg PUBLIC "-//W3C//DTD SVG 1.1//EN" "http://www.w3.org/Graphics/SVG/1.1/DTD/svg11.dtd"><svg width="100%" height="100%" viewBox="0 0 12 12" version="1.1" xmlns="http://www.w3.org/2000/svg" xmlns:xlink="http://www.w3.org/1999/xlink" xml:space="preserve" xmlns:serif="http://www.serif.com/" style="fill-rule:evenodd;clip-rule:evenodd;stroke-linejoin:round;stroke-miterlimit:1.41421;"><g><path d="M10.796,5.183l-4.898,-4.897c-0.19,-0.191 -0.419,-0.286 -0.685,-0.286c-0.26,0 -0.486,0.095 -0.677,0.286l-0.564,0.564c-0.19,0.181 -0.286,0.406 -0.286,0.677c0,0.271 0.096,0.497 0.286,0.677l2.204,2.212l-5.296,0c-0.261,0 -0.472,0.094 -0.635,0.282c-0.163,0.188 -0.245,0.415 -0.245,0.681l0,0.963c0,0.266 0.082,0.493 0.245,0.681c0.162,0.188 0.374,0.282 0.635,0.282l5.296,0l-2.204,2.204c-0.191,0.191 -0.286,0.419 -0.286,0.685c0,0.266 0.095,0.494 0.286,0.684l0.564,0.564c0.196,0.186 0.422,0.279 0.677,0.279c0.261,0 0.49,-0.093 0.685,-0.279l4.897,-4.897c0.186,-0.186 0.279,-0.414 0.279,-0.685c0,-0.275 -0.093,-0.501 -0.278,-0.677Z" style="fill:#3c3c3c;fill-rule:nonzero;"/></g></svg>