<?xml version="1.0" encoding="UTF-8" standalone="no"?><!DOCTYPE svg PUBLIC "-//W3C//DTD SVG 1.1//EN" "http://www.w3.org/Graphics/SVG/1.1/DTD/svg11.dtd"><svg width="100%" height="100%" viewBox="0 0 38 37" version="1.1" xmlns="http://www.w3.org/2000/svg" xmlns:xlink="http://www.w3.org/1999/xlink" xml:space="preserve" xmlns:serif="http://www.serif.com/" style="fill-rule:evenodd;clip-rule:evenodd;stroke-linejoin:round;stroke-miterlimit:1.41421;"><g><g><path d="M23.584,20.539c-0.433,0 -0.757,0.318 -0.912,0.509c-0.346,0.425 -0.544,1.035 -0.544,1.674c0,0.639 0.198,1.25 0.544,1.675c0.155,0.19 0.479,0.509 0.912,0.509c0.433,0 0.757,-0.319 0.912,-0.509c0.345,-0.425 0.544,-1.036 0.544,-1.675c0,-0.639 -0.199,-1.249 -0.544,-1.674c-0.155,-0.191 -0.479,-0.509 -0.912,-0.509Z" style="fill:#fff;fill-rule:nonzero;"/><path d="M14.289,15.611c0.433,0 0.757,-0.319 0.912,-0.509c0.346,-0.425 0.544,-1.035 0.544,-1.675c0,-0.639 -0.198,-1.249 -0.544,-1.674c-0.155,-0.19 -0.479,-0.509 -0.912,-0.509c-0.433,0 -0.757,0.319 -0.912,0.509c-0.345,0.425 -0.544,1.035 -0.544,1.674c0,0.64 0.199,1.25 0.544,1.675c0.155,0.19 0.479,0.509 0.912,0.509Z" style="fill:#fff;fill-rule:nonzero;"/><path d="M37.383,17.091l-4.636,-3.504l1.692,-5.561c0.112,-0.37 0.045,-0.771 -0.183,-1.084c-0.227,-0.313 -0.588,-0.501 -0.975,-0.508l-5.812,-0.106l-1.895,-5.496c-0.126,-0.366 -0.417,-0.652 -0.785,-0.771c-0.368,-0.12 -0.771,-0.06 -1.088,0.162l-4.765,3.333l-4.764,-3.333c-0.317,-0.222 -0.72,-0.282 -1.088,-0.163c-0.369,0.12 -0.659,0.406 -0.786,0.771l-1.894,5.497l-5.812,0.106c-0.387,0.007 -0.748,0.195 -0.975,0.508c-0.228,0.313 -0.295,0.714 -0.183,1.084l1.692,5.561l-4.636,3.504c-0.309,0.233 -0.49,0.597 -0.49,0.984c0,0.387 0.181,0.751 0.49,0.984l4.636,3.504l-1.692,5.56c-0.112,0.371 -0.045,0.772 0.183,1.085c0.227,0.313 0.589,0.501 0.975,0.508l5.812,0.106l1.895,5.496c0.126,0.366 0.417,0.652 0.785,0.771c0.368,0.12 0.771,0.06 1.088,-0.162l4.764,-3.334l4.765,3.334c0.21,0.147 0.457,0.223 0.707,0.223c0.128,0 0.257,-0.02 0.381,-0.061c0.368,-0.119 0.659,-0.405 0.785,-0.771l1.895,-5.496l5.812,-0.106c0.387,-0.007 0.748,-0.195 0.975,-0.508c0.228,-0.313 0.295,-0.715 0.183,-1.085l-1.692,-5.56l4.636,-3.504c0.309,-0.233 0.49,-0.597 0.49,-0.984c0,-0.387 -0.181,-0.751 -0.49,-0.984Zm-23.094,-7.56c1.75,0 3.169,1.744 3.169,3.897c0,2.152 -1.419,3.896 -3.169,3.896c-1.75,0 -3.169,-1.744 -3.169,-3.896c0,-2.153 1.419,-3.897 3.169,-3.897Zm-0.201,17.105c-0.198,0.275 -0.52,0.44 -0.859,0.44c-0.222,0 -0.435,-0.069 -0.616,-0.199c-0.473,-0.34 -0.581,-1.001 -0.241,-1.474l11.413,-15.889c0.198,-0.276 0.52,-0.44 0.86,-0.44c0.221,0 0.434,0.069 0.615,0.198c0.473,0.34 0.581,1.002 0.241,1.475l-11.413,15.889Zm9.496,-0.017c-1.75,0 -3.169,-1.745 -3.169,-3.897c0,-2.152 1.419,-3.897 3.169,-3.897c1.75,0 3.169,1.745 3.169,3.897c0,2.152 -1.419,3.897 -3.169,3.897Z" style="fill:#fff;fill-rule:nonzero;"/></g></g></svg>