<?xml version="1.0" encoding="UTF-8" standalone="no"?><!DOCTYPE svg PUBLIC "-//W3C//DTD SVG 1.1//EN" "http://www.w3.org/Graphics/SVG/1.1/DTD/svg11.dtd"><svg width="100%" height="100%" viewBox="0 0 44 34" version="1.1" xmlns="http://www.w3.org/2000/svg" xmlns:xlink="http://www.w3.org/1999/xlink" xml:space="preserve" xmlns:serif="http://www.serif.com/" style="fill-rule:evenodd;clip-rule:evenodd;stroke-linejoin:round;stroke-miterlimit:1.41421;"><g><g><path d="M6.665,0c-0.001,0 -0.002,0 -0.003,0c-0.412,0 -0.8,0.161 -1.093,0.453c-0.296,0.295 -0.459,0.688 -0.459,1.106l0,23.381c0,0.857 0.701,1.557 1.562,1.559c3.629,0.009 9.71,0.765 13.904,5.155l0,-24.469c0,-0.29 -0.074,-0.563 -0.214,-0.789c-3.443,-5.545 -10.059,-6.387 -13.697,-6.396Z" style="fill:#fff;fill-rule:nonzero;"/><path d="M38.463,24.94l0,-23.381c0,-0.418 -0.163,-0.811 -0.459,-1.106c-0.293,-0.292 -0.681,-0.453 -1.092,-0.453c-0.002,0 -0.003,0 -0.004,0c-3.638,0.009 -10.254,0.851 -13.697,6.396c-0.14,0.226 -0.214,0.499 -0.214,0.789l0,24.469c4.195,-4.39 10.276,-5.147 13.905,-5.155c0.861,-0.002 1.561,-0.702 1.561,-1.559Z" style="fill:#fff;fill-rule:nonzero;"/><path d="M42.014,5.392l-1.13,0l0,19.548c0,2.189 -1.784,3.974 -3.976,3.98c-3.079,0.007 -8.155,0.609 -11.75,4.011c6.218,-1.522 12.772,-0.532 16.507,0.319c0.467,0.106 0.948,-0.004 1.322,-0.302c0.373,-0.297 0.586,-0.741 0.586,-1.217l0,-24.78c0,-0.86 -0.699,-1.559 -1.559,-1.559Z" style="fill:#fff;fill-rule:nonzero;"/><path d="M2.69,24.94l0,-19.548l-1.131,0c-0.859,0 -1.559,0.699 -1.559,1.559l0,24.779c0,0.477 0.214,0.921 0.586,1.218c0.373,0.298 0.855,0.408 1.322,0.301c3.735,-0.851 10.29,-1.84 16.507,-0.318c-3.595,-3.402 -8.671,-4.004 -11.749,-4.012c-2.193,-0.005 -3.976,-1.79 -3.976,-3.979Z" style="fill:#fff;fill-rule:nonzero;"/></g></g></svg>