<?xml version="1.0" encoding="UTF-8" standalone="no"?><!DOCTYPE svg PUBLIC "-//W3C//DTD SVG 1.1//EN" "http://www.w3.org/Graphics/SVG/1.1/DTD/svg11.dtd"><svg width="100%" height="100%" viewBox="0 0 15 16" version="1.1" xmlns="http://www.w3.org/2000/svg" xmlns:xlink="http://www.w3.org/1999/xlink" xml:space="preserve" xmlns:serif="http://www.serif.com/" style="fill-rule:evenodd;clip-rule:evenodd;stroke-linejoin:round;stroke-miterlimit:1.41421;"><g><path d="M14.605,13.991l-3.656,-3.802c0.94,-1.117 1.455,-2.523 1.455,-3.987c0,-3.42 -2.782,-6.202 -6.202,-6.202c-3.42,0 -6.202,2.782 -6.202,6.202c0,3.42 2.782,6.202 6.202,6.202c1.284,0 2.507,-0.387 3.553,-1.122l3.684,3.831c0.154,0.16 0.361,0.248 0.583,0.248c0.21,0 0.409,-0.08 0.56,-0.226c0.322,-0.309 0.332,-0.822 0.023,-1.144Zm-8.403,-12.373c2.528,0 4.584,2.056 4.584,4.584c0,2.528 -2.056,4.584 -4.584,4.584c-2.528,0 -4.584,-2.056 -4.584,-4.584c0,-2.528 2.056,-4.584 4.584,-4.584Z" style="fill:#fff;fill-rule:nonzero;"/></g></svg>