<?xml version="1.0" encoding="UTF-8" standalone="no"?><!DOCTYPE svg PUBLIC "-//W3C//DTD SVG 1.1//EN" "http://www.w3.org/Graphics/SVG/1.1/DTD/svg11.dtd"><svg width="100%" height="100%" viewBox="0 0 8 8" version="1.1" xmlns="http://www.w3.org/2000/svg" xmlns:xlink="http://www.w3.org/1999/xlink" xml:space="preserve" xmlns:serif="http://www.serif.com/" style="fill-rule:evenodd;clip-rule:evenodd;stroke-linejoin:round;stroke-miterlimit:1.41421;"><g><path d="M7.311,3.51l-3.316,-3.316c-0.129,-0.129 -0.284,-0.194 -0.464,-0.194c-0.177,0 -0.33,0.065 -0.459,0.194l-0.382,0.382c-0.129,0.122 -0.193,0.275 -0.193,0.458c0,0.184 0.064,0.337 0.193,0.459l1.493,1.498l-3.587,0c-0.176,0 -0.32,0.063 -0.43,0.191c-0.111,0.127 -0.166,0.281 -0.166,0.461l0,0.652c0,0.18 0.055,0.334 0.166,0.461c0.11,0.128 0.254,0.191 0.43,0.191l3.587,0l-1.493,1.493c-0.129,0.129 -0.193,0.284 -0.193,0.464c0,0.18 0.064,0.334 0.193,0.463l0.382,0.383c0.133,0.125 0.286,0.188 0.459,0.188c0.177,0 0.331,-0.063 0.464,-0.188l3.316,-3.317c0.126,-0.126 0.189,-0.281 0.189,-0.464c0,-0.187 -0.063,-0.34 -0.189,-0.459Z" style="fill:#fff;fill-rule:nonzero;"/></g></svg>