<?xml version="1.0" encoding="UTF-8" standalone="no"?><!DOCTYPE svg PUBLIC "-//W3C//DTD SVG 1.1//EN" "http://www.w3.org/Graphics/SVG/1.1/DTD/svg11.dtd"><svg width="100%" height="100%" viewBox="0 0 13 15" version="1.1" xmlns="http://www.w3.org/2000/svg" xmlns:xlink="http://www.w3.org/1999/xlink" xml:space="preserve" xmlns:serif="http://www.serif.com/" style="fill-rule:evenodd;clip-rule:evenodd;stroke-linejoin:round;stroke-miterlimit:1.41421;"><g><g><path d="M5.865,9.224c0.025,0.236 0.223,0.411 0.455,0.411c0.016,0 0.032,-0.001 0.048,-0.002c0.251,-0.026 0.434,-0.251 0.408,-0.503l-0.211,-2.044c-0.026,-0.252 -0.251,-0.434 -0.502,-0.408c-0.252,0.026 -0.435,0.251 -0.409,0.502l0.211,2.044Z" style="fill:#3c3c3c;fill-rule:nonzero;"/><path d="M8.732,9.633c0.016,0.001 0.032,0.002 0.047,0.002c0.232,0 0.431,-0.175 0.455,-0.411l0.212,-2.044c0.026,-0.251 -0.157,-0.476 -0.409,-0.502c-0.252,-0.026 -0.477,0.156 -0.503,0.408l-0.211,2.044c-0.026,0.252 0.157,0.477 0.409,0.503Z" style="fill:#3c3c3c;fill-rule:nonzero;"/><path d="M5.185,11.624c-0.782,0 -1.418,0.636 -1.418,1.417c0,0.782 0.636,1.419 1.418,1.419c0.782,0 1.418,-0.637 1.418,-1.419c0,-0.781 -0.636,-1.417 -1.418,-1.417Zm0,1.919c-0.277,0 -0.502,-0.225 -0.502,-0.502c0,-0.276 0.225,-0.501 0.502,-0.501c0.277,0 0.502,0.225 0.502,0.501c0,0.277 -0.225,0.502 -0.502,0.502Z" style="fill:#3c3c3c;fill-rule:nonzero;"/><path d="M9.914,11.624c-0.781,0 -1.417,0.636 -1.417,1.417c0,0.782 0.636,1.419 1.417,1.419c0.782,0 1.418,-0.637 1.418,-1.419c0,-0.781 -0.636,-1.417 -1.418,-1.417Zm0,1.919c-0.276,0 -0.501,-0.225 -0.501,-0.502c0,-0.276 0.225,-0.501 0.501,-0.501c0.277,0 0.502,0.225 0.502,0.501c0,0.277 -0.225,0.502 -0.502,0.502Z" style="fill:#3c3c3c;fill-rule:nonzero;"/><path d="M12.654,5.15c-0.086,-0.113 -0.22,-0.178 -0.362,-0.178l-9.13,0l-0.383,-1.475c-0.053,-0.201 -0.235,-0.342 -0.444,-0.342l-1.877,0c-0.253,0 -0.458,0.205 -0.458,0.458c0,0.253 0.205,0.458 0.458,0.458l1.523,0l0.38,1.461c0.002,0.009 0.005,0.018 0.007,0.027l1.414,5.437c0.053,0.202 0.235,0.342 0.443,0.342l6.649,0c0.209,0 0.391,-0.14 0.444,-0.342l1.417,-5.451c0.036,-0.137 0.006,-0.283 -0.081,-0.395Zm-2.134,5.272l-5.941,0l-1.179,-4.534l8.299,0l-1.179,4.534Z" style="fill:#3c3c3c;fill-rule:nonzero;"/><path d="M5.656,2.398l2.682,0l-0.7,0.701c-0.179,0.179 -0.179,0.469 0,0.647c0.089,0.09 0.206,0.135 0.324,0.135c0.117,0 0.234,-0.045 0.324,-0.135l1.481,-1.481c0.179,-0.179 0.179,-0.469 0,-0.648l-1.483,-1.483c-0.178,-0.179 -0.468,-0.179 -0.647,0c-0.179,0.179 -0.179,0.469 0,0.648l0.7,0.7l-2.681,0c-0.253,0 -0.458,0.205 -0.458,0.458c0,0.253 0.205,0.458 0.458,0.458Z" style="fill:#3c3c3c;fill-rule:nonzero;"/></g></g></svg>