<?xml version="1.0" encoding="UTF-8" standalone="no"?><!DOCTYPE svg PUBLIC "-//W3C//DTD SVG 1.1//EN" "http://www.w3.org/Graphics/SVG/1.1/DTD/svg11.dtd"><svg width="100%" height="100%" viewBox="0 0 15 15" version="1.1" xmlns="http://www.w3.org/2000/svg" xmlns:xlink="http://www.w3.org/1999/xlink" xml:space="preserve" xmlns:serif="http://www.serif.com/" style="fill-rule:evenodd;clip-rule:evenodd;stroke-linejoin:round;stroke-miterlimit:1.41421;"><g><path d="M14.678,11.582c0.031,0.238 -0.041,0.446 -0.217,0.622l-2.068,2.052c-0.093,0.104 -0.215,0.192 -0.365,0.264c-0.151,0.073 -0.298,0.119 -0.443,0.14c-0.011,0 -0.042,0.003 -0.094,0.008c-0.051,0.005 -0.119,0.008 -0.202,0.008c-0.197,0 -0.515,-0.034 -0.956,-0.101c-0.44,-0.068 -0.979,-0.234 -1.617,-0.498c-0.637,-0.264 -1.36,-0.661 -2.168,-1.189c-0.809,-0.529 -1.669,-1.254 -2.581,-2.177c-0.726,-0.715 -1.327,-1.399 -1.803,-2.052c-0.477,-0.653 -0.861,-1.256 -1.151,-1.811c-0.29,-0.554 -0.508,-1.057 -0.653,-1.508c-0.145,-0.451 -0.243,-0.839 -0.295,-1.166c-0.052,-0.326 -0.073,-0.583 -0.062,-0.769c0.01,-0.187 0.015,-0.291 0.015,-0.311c0.021,-0.145 0.068,-0.293 0.14,-0.443c0.073,-0.151 0.161,-0.272 0.264,-0.366l2.068,-2.067c0.145,-0.145 0.311,-0.218 0.497,-0.218c0.135,0 0.254,0.039 0.358,0.117c0.104,0.077 0.192,0.173 0.264,0.287l1.664,3.156c0.093,0.166 0.119,0.347 0.078,0.544c-0.042,0.197 -0.13,0.363 -0.265,0.498l-0.762,0.761c-0.02,0.021 -0.038,0.055 -0.054,0.102c-0.015,0.046 -0.023,0.085 -0.023,0.116c0.041,0.218 0.134,0.467 0.28,0.746c0.124,0.249 0.316,0.552 0.575,0.91c0.259,0.357 0.627,0.769 1.104,1.236c0.466,0.477 0.881,0.847 1.243,1.111c0.363,0.265 0.666,0.459 0.91,0.583c0.243,0.125 0.43,0.2 0.559,0.226l0.195,0.039c0.02,0 0.054,-0.008 0.101,-0.024c0.046,-0.015 0.08,-0.033 0.101,-0.054l0.886,-0.902c0.187,-0.166 0.404,-0.249 0.653,-0.249c0.176,0 0.316,0.031 0.42,0.094l0.015,0l3.001,1.772c0.217,0.135 0.347,0.306 0.388,0.513Z" style="fill:#fff23a;fill-rule:nonzero;"/></g></svg>