<?xml version="1.0" encoding="UTF-8" standalone="no"?><!DOCTYPE svg PUBLIC "-//W3C//DTD SVG 1.1//EN" "http://www.w3.org/Graphics/SVG/1.1/DTD/svg11.dtd"><svg width="100%" height="100%" viewBox="0 0 101 20" version="1.1" xmlns="http://www.w3.org/2000/svg" xmlns:xlink="http://www.w3.org/1999/xlink" xml:space="preserve" xmlns:serif="http://www.serif.com/" style="fill-rule:evenodd;clip-rule:evenodd;stroke-linejoin:round;stroke-miterlimit:1.41421;"><path d="M9.822,1.061l1.967,6.054l6.365,0l-5.149,3.741l1.967,6.054l-5.15,-3.741l-5.15,3.741l1.967,-6.054l-5.15,-3.741l6.366,0l1.967,-6.054Z" style="fill:#fff23a;"/><path d="M9.926,0.318l0.069,0.013l0.067,0.019l0.065,0.026l0.062,0.031l0.06,0.037l0.055,0.042l0.051,0.047l0.047,0.052l0.042,0.056l0.036,0.06l0.031,0.063l0.024,0.065l1.799,5.536l5.82,0l0.07,0.003l0.069,0.01l0.068,0.016l0.066,0.022l0.064,0.028l0.061,0.035l0.057,0.039l0.054,0.045l0.049,0.05l0.044,0.054l0.039,0.058l0.034,0.061l0.027,0.064l0.022,0.066l0.015,0.068l0.009,0.07l0.002,0.069l-0.004,0.07l-0.01,0.069l-0.017,0.068l-0.023,0.066l-0.029,0.063l-0.035,0.06l-0.04,0.057l-0.046,0.053l-0.05,0.049l-0.055,0.043l-4.709,3.422l1.799,5.535l0.019,0.068l0.012,0.068l0.005,0.07l-0.001,0.07l-0.007,0.069l-0.014,0.068l-0.02,0.067l-0.026,0.065l-0.032,0.062l-0.037,0.059l-0.043,0.055l-0.048,0.051l-0.053,0.046l-0.056,0.041l-0.06,0.035l-0.063,0.03l-0.066,0.024l-0.067,0.018l-0.069,0.011l-0.07,0.005l-0.07,-0.002l-0.069,-0.008l-0.068,-0.014l-0.067,-0.021l-0.064,-0.027l-0.062,-0.033l-0.058,-0.038l-4.709,-3.421l-4.709,3.421l-0.058,0.038l-0.062,0.033l-0.064,0.027l-0.067,0.021l-0.068,0.014l-0.069,0.008l-0.07,0.002l-0.07,-0.005l-0.069,-0.011l-0.067,-0.018l-0.066,-0.024l-0.063,-0.03l-0.06,-0.035l-0.056,-0.041l-0.053,-0.046l-0.048,-0.051l-0.043,-0.055l-0.037,-0.059l-0.032,-0.062l-0.026,-0.065l-0.021,-0.067l-0.013,-0.068l-0.008,-0.069l0,-0.07l0.005,-0.07l0.012,-0.068l0.019,-0.068l1.799,-5.535l-4.709,-3.422l-0.055,-0.043l-0.05,-0.049l-0.046,-0.053l-0.04,-0.057l-0.035,-0.06l-0.029,-0.063l-0.023,-0.066l-0.017,-0.068l-0.01,-0.069l-0.004,-0.07l0.002,-0.069l0.009,-0.07l0.015,-0.068l0.022,-0.066l0.027,-0.064l0.034,-0.061l0.039,-0.058l0.044,-0.054l0.049,-0.05l0.054,-0.045l0.057,-0.039l0.061,-0.035l0.064,-0.028l0.066,-0.022l0.068,-0.016l0.069,-0.01l0.069,-0.003l5.821,0l1.799,-5.536l0.024,-0.065l0.031,-0.063l0.036,-0.06l0.042,-0.056l0.047,-0.052l0.051,-0.047l0.055,-0.042l0.06,-0.037l0.062,-0.031l0.065,-0.026l0.067,-0.019l0.069,-0.013l0.069,-0.007l0.07,0l0.069,0.007Zm-2.071,6.797l-6.366,0l5.15,3.741l-1.967,6.054l5.15,-3.741l5.15,3.741l-1.967,-6.054l5.149,-3.741l-6.365,0l-1.967,-6.054l-1.967,6.054Z" style="fill:#dc0a0a;"/><path d="M30.004,1.061l1.967,6.054l6.365,0l-5.149,3.741l1.967,6.054l-5.15,-3.741l-5.15,3.741l1.967,-6.054l-5.15,-3.741l6.366,0l1.967,-6.054Z" style="fill:#fff23a;"/><path d="M30.039,0.311l0.069,0.007l0.069,0.013l0.067,0.019l0.065,0.026l0.062,0.031l0.059,0.037l0.056,0.042l0.051,0.047l0.047,0.052l0.042,0.056l0.036,0.06l0.03,0.063l0.025,0.065l1.799,5.536l5.82,0l0.07,0.003l0.069,0.01l0.068,0.016l0.066,0.022l0.064,0.028l0.061,0.035l0.057,0.039l0.054,0.045l0.049,0.05l0.044,0.054l0.039,0.058l0.033,0.061l0.028,0.064l0.022,0.066l0.015,0.068l0.009,0.07l0.002,0.069l-0.004,0.07l-0.01,0.069l-0.017,0.068l-0.023,0.066l-0.029,0.063l-0.035,0.06l-0.041,0.057l-0.045,0.053l-0.05,0.049l-0.055,0.043l-4.709,3.422l1.799,5.535l0.018,0.068l0.012,0.068l0.006,0.07l-0.001,0.07l-0.007,0.069l-0.014,0.068l-0.02,0.067l-0.026,0.065l-0.032,0.062l-0.038,0.059l-0.043,0.055l-0.047,0.051l-0.053,0.046l-0.056,0.041l-0.06,0.035l-0.063,0.03l-0.066,0.024l-0.067,0.018l-0.069,0.011l-0.07,0.005l-0.07,-0.002l-0.069,-0.008l-0.068,-0.014l-0.067,-0.021l-0.064,-0.027l-0.062,-0.033l-0.058,-0.038l-4.709,-3.421l-4.709,3.421l-0.058,0.038l-0.062,0.033l-0.064,0.027l-0.067,0.021l-0.068,0.014l-0.07,0.008l-0.069,0.002l-0.07,-0.005l-0.069,-0.011l-0.067,-0.018l-0.066,-0.024l-0.063,-0.03l-0.06,-0.035l-0.057,-0.041l-0.052,-0.046l-0.048,-0.051l-0.043,-0.055l-0.037,-0.059l-0.033,-0.062l-0.026,-0.065l-0.02,-0.067l-0.013,-0.068l-0.008,-0.069l0,-0.07l0.005,-0.07l0.012,-0.068l0.019,-0.068l1.798,-5.535l-4.709,-3.422l-0.054,-0.043l-0.05,-0.049l-0.046,-0.053l-0.04,-0.057l-0.035,-0.06l-0.029,-0.063l-0.023,-0.066l-0.017,-0.068l-0.011,-0.069l-0.004,-0.07l0.003,-0.069l0.009,-0.07l0.015,-0.068l0.022,-0.066l0.027,-0.064l0.034,-0.061l0.039,-0.058l0.044,-0.054l0.049,-0.05l0.053,-0.045l0.058,-0.039l0.061,-0.035l0.063,-0.028l0.067,-0.022l0.067,-0.016l0.07,-0.01l0.069,-0.003l5.821,0l1.799,-5.536l0.024,-0.065l0.031,-0.063l0.036,-0.06l0.042,-0.056l0.046,-0.052l0.052,-0.047l0.055,-0.042l0.059,-0.037l0.063,-0.031l0.065,-0.026l0.067,-0.019l0.068,-0.013l0.07,-0.007l0.07,0Zm-2.002,6.804l-6.366,0l5.15,3.741l-1.967,6.054l5.15,-3.741l5.15,3.741l-1.967,-6.054l5.149,-3.741l-6.365,0l-1.967,-6.054l-1.967,6.054Z" style="fill:#dc0a0a;"/><path d="M50.186,1.061l1.967,6.054l6.365,0l-5.15,3.741l1.967,6.054l-5.149,-3.741l-5.15,3.741l1.967,-6.054l-5.15,-3.741l6.366,0l1.967,-6.054Z" style="fill:#fff23a;"/><path d="M50.221,0.311l0.069,0.007l0.069,0.013l0.067,0.019l0.065,0.026l0.062,0.031l0.059,0.037l0.056,0.042l0.051,0.047l0.047,0.052l0.041,0.056l0.037,0.06l0.03,0.063l0.025,0.065l1.799,5.536l5.82,0l0.07,0.003l0.069,0.01l0.068,0.016l0.066,0.022l0.064,0.028l0.061,0.035l0.057,0.039l0.053,0.045l0.05,0.05l0.044,0.054l0.039,0.058l0.033,0.061l0.028,0.064l0.021,0.066l0.016,0.068l0.009,0.07l0.002,0.069l-0.004,0.07l-0.01,0.069l-0.017,0.068l-0.023,0.066l-0.03,0.063l-0.034,0.06l-0.041,0.057l-0.045,0.053l-0.05,0.049l-0.055,0.043l-4.709,3.422l1.799,5.535l0.018,0.068l0.012,0.068l0.006,0.07l-0.001,0.07l-0.007,0.069l-0.014,0.068l-0.02,0.067l-0.026,0.065l-0.032,0.062l-0.038,0.059l-0.043,0.055l-0.048,0.051l-0.052,0.046l-0.056,0.041l-0.06,0.035l-0.064,0.03l-0.065,0.024l-0.068,0.018l-0.068,0.011l-0.07,0.005l-0.07,-0.002l-0.069,-0.008l-0.068,-0.014l-0.067,-0.021l-0.064,-0.027l-0.062,-0.033l-0.058,-0.038l-4.709,-3.421l-4.709,3.421l-0.059,0.038l-0.061,0.033l-0.065,0.027l-0.066,0.021l-0.068,0.014l-0.07,0.008l-0.07,0.002l-0.069,-0.005l-0.069,-0.011l-0.068,-0.018l-0.065,-0.024l-0.063,-0.03l-0.06,-0.035l-0.057,-0.041l-0.052,-0.046l-0.048,-0.051l-0.043,-0.055l-0.038,-0.059l-0.032,-0.062l-0.026,-0.065l-0.02,-0.067l-0.014,-0.068l-0.007,-0.069l-0.001,-0.07l0.006,-0.07l0.012,-0.068l0.019,-0.068l1.798,-5.535l-4.709,-3.422l-0.054,-0.043l-0.05,-0.049l-0.046,-0.053l-0.04,-0.057l-0.035,-0.06l-0.029,-0.063l-0.023,-0.066l-0.017,-0.068l-0.011,-0.069l-0.004,-0.07l0.003,-0.069l0.009,-0.07l0.015,-0.068l0.021,-0.066l0.028,-0.064l0.034,-0.061l0.039,-0.058l0.044,-0.054l0.049,-0.05l0.053,-0.045l0.058,-0.039l0.061,-0.035l0.063,-0.028l0.066,-0.022l0.068,-0.016l0.069,-0.01l0.07,-0.003l5.821,0l1.798,-5.536l0.025,-0.065l0.031,-0.063l0.036,-0.06l0.042,-0.056l0.046,-0.052l0.052,-0.047l0.055,-0.042l0.059,-0.037l0.063,-0.031l0.065,-0.026l0.067,-0.019l0.068,-0.013l0.07,-0.007l0.07,0Zm-2.002,6.804l-6.366,0l5.15,3.741l-1.967,6.054l5.15,-3.741l5.149,3.741l-1.967,-6.054l5.15,-3.741l-6.365,0l-1.967,-6.054l-1.967,6.054Z" style="fill:#dc0a0a;"/><path d="M70.367,1.061l1.968,6.054l6.365,0l-5.15,3.741l1.967,6.054l-5.15,-3.741l-5.149,3.741l1.967,-6.054l-5.15,-3.741l6.365,0l1.967,-6.054Z" style="fill:#fff23a;"/><path d="M70.402,0.311l0.07,0.007l0.068,0.013l0.068,0.019l0.065,0.026l0.062,0.031l0.059,0.037l0.056,0.042l0.051,0.047l0.047,0.052l0.041,0.056l0.037,0.06l0.03,0.063l0.025,0.065l1.798,5.536l5.821,0l0.07,0.003l0.069,0.01l0.068,0.016l0.066,0.022l0.064,0.028l0.06,0.035l0.058,0.039l0.053,0.045l0.049,0.05l0.045,0.054l0.039,0.058l0.033,0.061l0.028,0.064l0.021,0.066l0.016,0.068l0.009,0.07l0.002,0.069l-0.004,0.07l-0.011,0.069l-0.016,0.068l-0.024,0.066l-0.029,0.063l-0.035,0.06l-0.04,0.057l-0.045,0.053l-0.051,0.049l-0.054,0.043l-4.709,3.422l1.799,5.535l0.018,0.068l0.012,0.068l0.006,0.07l-0.001,0.07l-0.007,0.069l-0.014,0.068l-0.02,0.067l-0.026,0.065l-0.032,0.062l-0.038,0.059l-0.043,0.055l-0.048,0.051l-0.052,0.046l-0.057,0.041l-0.06,0.035l-0.063,0.03l-0.065,0.024l-0.068,0.018l-0.069,0.011l-0.069,0.005l-0.07,-0.002l-0.069,-0.008l-0.069,-0.014l-0.066,-0.021l-0.065,-0.027l-0.061,-0.033l-0.059,-0.038l-4.709,-3.421l-4.708,3.421l-0.059,0.038l-0.061,0.033l-0.065,0.027l-0.066,0.021l-0.069,0.014l-0.069,0.008l-0.07,0.002l-0.069,-0.005l-0.069,-0.011l-0.068,-0.018l-0.065,-0.024l-0.063,-0.03l-0.06,-0.035l-0.057,-0.041l-0.052,-0.046l-0.048,-0.051l-0.043,-0.055l-0.038,-0.059l-0.032,-0.062l-0.026,-0.065l-0.02,-0.067l-0.014,-0.068l-0.007,-0.069l-0.001,-0.07l0.006,-0.07l0.012,-0.068l0.018,-0.068l1.799,-5.535l-4.709,-3.422l-0.054,-0.043l-0.051,-0.049l-0.045,-0.053l-0.04,-0.057l-0.035,-0.06l-0.029,-0.063l-0.024,-0.066l-0.016,-0.068l-0.011,-0.069l-0.004,-0.07l0.002,-0.069l0.009,-0.07l0.016,-0.068l0.021,-0.066l0.028,-0.064l0.033,-0.061l0.039,-0.058l0.045,-0.054l0.049,-0.05l0.053,-0.045l0.058,-0.039l0.06,-0.035l0.064,-0.028l0.066,-0.022l0.068,-0.016l0.069,-0.01l0.07,-0.003l5.821,0l1.798,-5.536l0.025,-0.065l0.03,-0.063l0.037,-0.06l0.041,-0.056l0.047,-0.052l0.051,-0.047l0.056,-0.042l0.059,-0.037l0.062,-0.031l0.065,-0.026l0.068,-0.019l0.068,-0.013l0.07,-0.007l0.069,0Zm-2.002,6.804l-6.365,0l5.15,3.741l-1.967,6.054l5.149,-3.741l5.15,3.741l-1.967,-6.054l5.15,-3.741l-6.365,0l-1.968,-6.054l-1.967,6.054Z" style="fill:#dc0a0a;"/><path d="M90.549,1.061l1.967,6.054l6.366,0l-5.15,3.741l1.967,6.054l-5.15,-3.741l-5.149,3.741l1.967,-6.054l-5.15,-3.741l6.365,0l1.967,-6.054Z" style="fill:#fff23a;"/><path d="M90.584,0.311l0.07,0.007l0.068,0.013l0.067,0.019l0.065,0.026l0.063,0.031l0.059,0.037l0.055,0.042l0.052,0.047l0.046,0.052l0.042,0.056l0.036,0.06l0.031,0.063l0.025,0.065l1.798,5.536l5.821,0l0.07,0.003l0.069,0.01l0.068,0.016l0.066,0.022l0.063,0.028l0.061,0.035l0.058,0.039l0.053,0.045l0.049,0.05l0.044,0.054l0.039,0.058l0.034,0.061l0.028,0.064l0.021,0.066l0.015,0.068l0.009,0.07l0.003,0.069l-0.004,0.07l-0.011,0.069l-0.017,0.068l-0.023,0.066l-0.029,0.063l-0.035,0.06l-0.04,0.057l-0.046,0.053l-0.05,0.049l-0.054,0.043l-4.709,3.422l1.798,5.535l0.019,0.068l0.012,0.068l0.006,0.07l-0.001,0.07l-0.007,0.069l-0.014,0.068l-0.02,0.067l-0.026,0.065l-0.032,0.062l-0.038,0.059l-0.043,0.055l-0.048,0.051l-0.052,0.046l-0.057,0.041l-0.06,0.035l-0.063,0.03l-0.065,0.024l-0.068,0.018l-0.069,0.011l-0.069,0.005l-0.07,-0.002l-0.07,-0.008l-0.068,-0.014l-0.066,-0.021l-0.065,-0.027l-0.061,-0.033l-0.059,-0.038l-4.709,-3.421l-4.709,3.421l-0.058,0.038l-0.062,0.033l-0.064,0.027l-0.067,0.021l-0.068,0.014l-0.069,0.008l-0.07,0.002l-0.07,-0.005l-0.068,-0.011l-0.068,-0.018l-0.065,-0.024l-0.064,-0.03l-0.06,-0.035l-0.056,-0.041l-0.052,-0.046l-0.048,-0.051l-0.043,-0.055l-0.038,-0.059l-0.032,-0.062l-0.026,-0.065l-0.02,-0.067l-0.014,-0.068l-0.007,-0.069l-0.001,-0.07l0.006,-0.07l0.012,-0.068l0.018,-0.068l1.799,-5.535l-4.709,-3.422l-0.055,-0.043l-0.05,-0.049l-0.045,-0.053l-0.041,-0.057l-0.034,-0.06l-0.03,-0.063l-0.023,-0.066l-0.017,-0.068l-0.01,-0.069l-0.004,-0.07l0.002,-0.069l0.009,-0.07l0.016,-0.068l0.021,-0.066l0.028,-0.064l0.033,-0.061l0.039,-0.058l0.044,-0.054l0.05,-0.05l0.053,-0.045l0.057,-0.039l0.061,-0.035l0.064,-0.028l0.066,-0.022l0.068,-0.016l0.069,-0.01l0.07,-0.003l5.82,0l1.799,-5.536l0.025,-0.065l0.03,-0.063l0.037,-0.06l0.041,-0.056l0.047,-0.052l0.051,-0.047l0.056,-0.042l0.059,-0.037l0.062,-0.031l0.065,-0.026l0.067,-0.019l0.069,-0.013l0.069,-0.007l0.07,0Zm-2.002,6.804l-6.365,0l5.15,3.741l-1.967,6.054l5.149,-3.741l5.15,3.741l-1.967,-6.054l5.15,-3.741l-6.366,0l-1.967,-6.054l-1.967,6.054Z" style="fill:#dc0a0a;"/></svg>