<?xml version="1.0" encoding="UTF-8" standalone="no"?><!DOCTYPE svg PUBLIC "-//W3C//DTD SVG 1.1//EN" "http://www.w3.org/Graphics/SVG/1.1/DTD/svg11.dtd"><svg width="100%" height="100%" viewBox="0 0 15 12" version="1.1" xmlns="http://www.w3.org/2000/svg" xmlns:xlink="http://www.w3.org/1999/xlink" xml:space="preserve" xmlns:serif="http://www.serif.com/" style="fill-rule:evenodd;clip-rule:evenodd;stroke-linejoin:round;stroke-miterlimit:1.41421;"><g><g><path d="M1.411,3.56c0.186,0.131 0.746,0.521 1.682,1.169c0.935,0.648 1.651,1.147 2.149,1.497c0.054,0.038 0.171,0.122 0.348,0.25c0.178,0.129 0.326,0.233 0.443,0.312c0.118,0.079 0.26,0.168 0.427,0.267c0.167,0.098 0.324,0.172 0.472,0.221c0.147,0.049 0.284,0.074 0.41,0.074l0.016,0c0.126,0 0.263,-0.025 0.41,-0.074c0.148,-0.049 0.305,-0.123 0.472,-0.221c0.167,-0.099 0.309,-0.188 0.427,-0.267c0.117,-0.079 0.265,-0.183 0.443,-0.312c0.177,-0.128 0.294,-0.212 0.348,-0.25c0.503,-0.35 1.783,-1.239 3.839,-2.666c0.399,-0.279 0.733,-0.615 1.001,-1.009c0.268,-0.394 0.402,-0.806 0.402,-1.238c0,-0.361 -0.13,-0.67 -0.39,-0.927c-0.26,-0.258 -0.567,-0.386 -0.923,-0.386l-12.075,0c-0.421,0 -0.745,0.142 -0.972,0.426c-0.227,0.285 -0.34,0.64 -0.34,1.067c0,0.344 0.15,0.718 0.451,1.12c0.301,0.402 0.621,0.717 0.96,0.947Z" style="fill:#fff;fill-rule:nonzero;"/><path d="M13.88,4.438c-1.794,1.214 -3.156,2.157 -4.085,2.83c-0.312,0.229 -0.565,0.409 -0.759,0.537c-0.194,0.129 -0.453,0.26 -0.775,0.394c-0.323,0.134 -0.624,0.201 -0.903,0.201l-0.008,0l-0.008,0c-0.279,0 -0.58,-0.067 -0.903,-0.201c-0.322,-0.134 -0.581,-0.265 -0.775,-0.394c-0.194,-0.128 -0.447,-0.308 -0.758,-0.537c-0.739,-0.541 -2.098,-1.485 -4.077,-2.83c-0.312,-0.208 -0.588,-0.446 -0.829,-0.714l0,6.513c0,0.361 0.128,0.67 0.386,0.927c0.257,0.257 0.566,0.386 0.927,0.386l12.075,0c0.36,0 0.669,-0.129 0.926,-0.386c0.258,-0.257 0.386,-0.566 0.386,-0.927l0,-6.513c-0.235,0.263 -0.509,0.501 -0.82,0.714Z" style="fill:#fff;fill-rule:nonzero;"/></g></g></svg>