<?xml version="1.0" encoding="UTF-8" standalone="no"?><!DOCTYPE svg PUBLIC "-//W3C//DTD SVG 1.1//EN" "http://www.w3.org/Graphics/SVG/1.1/DTD/svg11.dtd"><svg width="100%" height="100%" viewBox="0 0 1025 466" version="1.1" xmlns="http://www.w3.org/2000/svg" xmlns:xlink="http://www.w3.org/1999/xlink" xml:space="preserve" xmlns:serif="http://www.serif.com/" style="fill-rule:evenodd;clip-rule:evenodd;stroke-linejoin:round;stroke-miterlimit:1.41421;"><g><path d="M1024.5,242.607c-476.116,62.96 -679.086,-179.109 -1024.5,0l0,175.104c406.652,-60.76 847.494,133.365 1024.5,0l0,-175.104Z" style="fill:#06a9fd;fill-opacity:0.4;"/><path d="M1024.5,220.107c-476.116,62.96 -679.086,-179.109 -1024.5,0l0,175.104c406.652,-60.76 847.494,133.365 1024.5,0l0,-175.104Z" style="fill:#06a9fd;fill-opacity:0.3;"/><path d="M0,220.107c476.116,62.96 679.086,-179.109 1024.5,0l0,175.104c-406.652,-60.76 -847.494,133.365 -1024.5,0l0,-175.104Z" style="fill:#06a9fd;fill-opacity:0.187059;"/><path d="M976.75,0c-187.347,79.429 -335.772,36.305 -519.311,0l519.311,0Z" style="fill:#06a9fd;fill-opacity:0.187059;"/><path d="M1024.5,0l0,14.984c-476.116,-62.961 -679.086,179.109 -1024.5,0l0,-14.984l1024.5,0Z" style="fill:#06a9fd;fill-opacity:0.187059;"/></g></svg>